<svg xmlns="http://www.w3.org/2000/svg" viewBox="0 0 508 508"><style>.a{fill:#FFF;}</style><path d="M501.7 289.8l-233-233c-4.1-4.1-9.6-6.3-15.3-6.3h-144.1c-5.7 0-11.2 2.3-15.3 6.3l-36.2 36.2c-4.1 4.1-6.3 9.6-6.3 15.3v144.1c0 5.7 2.3 11.2 6.3 15.3l233 233c8.4 8.4 22.1 8.4 30.6 0l180.3-180.3C510.1 312 510.1 298.3 501.7 289.8zM161.5 160.5c-13.9 13.9-36.4 13.9-50.3 0s-13.9-36.4 0-50.3 36.4-13.9 50.3 0S175.4 146.6 161.5 160.5z" fill="#00B4C0"/><path d="M102.1 139.5c-15.9-1.7-32.4-8.5-47-19.3 -0.9-0.6-1.8-1.4-2.6-2.1 0 7.3 0 14.3 0 21l0 0c17.6 11.2 37.1 17.5 55.8 17.9 0.4 0 0.8 0 1.2 0C105.3 151.9 102.9 145.7 102.1 139.5z" class="a"/><path d="M161.8 110.4c-2.3-2.3-4.7-4.2-7.5-5.7 -0.9 1.1-1.6 2.5-1.8 4 -1 5.8-3.2 11.1-6.6 15.6 -7.9 10.6-21.4 16.3-38.1 16 -2.1 0-4.3-0.2-6.4-0.4 -15.9-1.7-32.4-8.5-47-19.3 -0.9-0.6-1.8-1.4-2.6-2.1 -31.6-24.8-44-62.3-27.5-84.5 16.9-22.8 58-21.2 91.6 3.7 5.3 3.9 10.1 8.3 14.5 12.9 6.9 0 13.4 0 19.8 0 0.1-1.9-0.6-3.9-1.9-5.5 -6.4-7.9-13.8-15-22.3-21.2 -41.1-30.5-92.9-30.6-115.5-0.1 -19.8 26.7-10.6 68.2 19.8 98.6 4.2 4.2 8.9 8.2 13.9 12 2.5 1.8 5 3.5 7.6 5.1l0 0c17.6 11.2 37.1 17.5 55.8 17.9 0.4 0 0.8 0 1.2 0 21.9 0.1 40-8 51-22.9 3.6-4.8 6.3-10.2 8.1-16.1C166.3 115.6 164.2 112.9 161.8 110.4z" fill="#FF7058"/><rect x="198.3" y="222.8" transform="matrix(-0.7071 -0.7071 0.7071 -0.7071 400.8961 635.117)" width="267.3" height="23.5" class="a"/><rect x="150.3" y="268.9" transform="matrix(-0.7071 -0.7071 0.7071 -0.7071 286.2599 679.8247)" width="267.3" height="23.5" class="a"/><rect x="102.7" y="318.4" transform="matrix(-0.7071 -0.7071 0.7071 -0.7071 170.0296 730.6475)" width="267.3" height="23.5" class="a"/></svg>