<svg xmlns="http://www.w3.org/2000/svg" viewBox="0 0 448 448"><style>.a{fill:#FFD7A3;}.b{fill:#EF8C56;}.c{fill:#FF9656;}.d{fill:#623F33;}.e{fill:#80A68B;}</style><path d="M380.6 421l-10.1-81c-1.5-12.2-9.9-22.5-21.6-26.4l-43.8-14.6c-4.1-1.4-8.5 0.7-10 4.7l-12.2-4.1c-6.5-2.2-10.9-8.3-10.9-15.2v-25.8l34.5-14.4C324.3 236.9 336 219.4 336 200v-8c13.3 0 24-10.7 24-24 0-7-3-13.3-7.8-17.7l4.7-44.2C362.8 49.4 318.4 0 261.4 0H160c-17.1 0-31.7 10.7-37.4 25.8 -23 6.4-39 28.8-36.1 53.8l8.4 71.5C90.7 155.4 88 161.4 88 168c0 13.3 10.7 24 24 24v8c0 19.4 11.7 36.9 29.5 44.3L176 258.7v25.8c0 6.9-4.4 13-10.9 15.2l-12.2 4.1c-1.5-4-5.9-6-10-4.7l-43.8 14.6c-11.7 3.9-20.1 14.2-21.6 26.4l-10.1 81C65.6 435.3 76.8 448 91.2 448h0.2 265.2 0.2C371.2 448 382.4 435.3 380.6 421z" class="a"/><path d="M136 24L136 24c-29.8 0-52.9 26-49.5 55.6L96 160h40l32-88L136 24z" class="b"/><path d="M272 258h-96v26.5c0 5.7-3 10.9-7.8 13.7C235.2 309.7 272 258 272 258z" fill="#FDC88E"/><path d="M325 152v-64L120 40l0 0c0-22.1 17.9-40 40-40h101.4c57 0 101.4 49.4 95.5 106.1L352 152 325 152z" class="c"/><path d="M289 323C273 335.9 249.8 344 224 344c-25.8 0-49-8.1-65.1-21C165.3 338.6 187.2 375.5 224 404 260.8 375.5 282.7 338.7 289 323z" fill="#FFC33D"/><path d="M380.6 421l-10.1-81c-1.5-12.2-9.9-22.5-21.6-26.4l-43.8-14.6c-4.2-1.4-8.8 0.8-10.1 5C278.1 357.5 224 400 224 400s-54.1-42.5-71-96c-1.3-4.2-5.9-6.4-10.1-5l-43.8 14.6c-11.7 3.9-20.1 14.2-21.6 26.4l-10.1 81C65.6 435.3 76.8 448 91.2 448h265.6C371.2 448 382.4 435.3 380.6 421z" fill="#95B995"/><path d="M336 144v-16c0-22.1-17.9-40-40-40H152c-22.1 0-40 17.9-40 40v16c-13.3 0-24 10.7-24 24 0 13.3 10.7 24 24 24v8c0 19.4 11.7 36.9 29.5 44.3l51.7 21.5c9.8 4.1 20.2 6.2 30.8 6.2l0 0c10.6 0 21-2.1 30.8-6.2l51.7-21.5C324.3 236.9 336 219.4 336 200v-8c13.3 0 24-10.7 24-24S349.3 144 336 144z" fill="#FFE1B2"/><path d="M168 176L168 176c-4.4 0-8-3.6-8-8v-8c0-4.4 3.6-8 8-8l0 0c4.4 0 8 3.6 8 8v8C176 172.4 172.4 176 168 176z" class="d"/><path d="M280 176L280 176c-4.4 0-8-3.6-8-8v-8c0-4.4 3.6-8 8-8l0 0c4.4 0 8 3.6 8 8v8C288 172.4 284.4 176 280 176z" class="d"/><path d="M224 232.2c-14.2 0-27.5-3.5-36.5-9.6 -3.7-2.5-4.6-7.5-2.1-11.1 2.5-3.6 7.5-4.6 11.1-2.1 6.3 4.3 16.6 6.8 27.5 6.8s21.2-2.6 27.5-6.8c3.7-2.5 8.6-1.5 11.1 2.1 2.5 3.7 1.5 8.6-2.1 11.1C251.5 228.7 238.2 232.2 224 232.2z" fill="#E4B07B"/><path d="M84.2 324.2c-3.6 4.5-5.9 9.9-6.7 15.8l-10.1 81C65.6 435.3 76.8 448 91.2 448H136v-52.1c0-7.7-2.8-15.1-7.8-21L84.2 324.2z" class="e"/><path d="M363.8 324.2c3.6 4.5 5.9 9.9 6.7 15.8l10.1 81C382.4 435.3 371.3 448 356.8 448H312v-52.1c0-7.7 2.8-15.1 7.8-21L363.8 324.2z" class="e"/><path d="M256 138v-65H128l5.2 19.7C120.6 99.4 112 112.7 112 128v16c-13.3 0-24 10.7-24 24s10.7 24 24 24v8c0 19.4 11.7 36.9 29.5 44.3l51.7 21.5c2.5 1.1 5.1 2 7.7 2.7 -22.8-16.7-38-31.3-47-40.9 -6.5-6.9-10-16.1-10-25.6v-94.9C160 114.3 207.1 132.1 256 138z" class="a"/><path d="M200 112V96c0 0 20.7 22.7 72 32V96l16 32 48-24 0 0c0-35.3-28.7-64-64-64H120C120 40 126.7 102 200 112z" class="c"/><path d="M120 40c0 0 6.7 62 80 72 -32.7-36-40-91.3-40-112C137.9 0 120 17.9 120 40z" class="b"/></svg>