<svg xmlns="http://www.w3.org/2000/svg" width="512" height="512" viewBox="0 0 442.8 442.8"><path d="M237.1 31.6c-113.6 0-205.7 85-205.7 189.8 0 28.5 6.8 55.5 19 79.7L1.7 389.1c-2.7 4.9-2.2 10.9 1.2 15.3 2.7 3.4 6.7 5.3 10.9 5.3 1.2 0 2.5-0.2 3.7-0.5l106.5-29.2c32.4 19.7 71.3 31.2 113 31.2 113.6 0 205.7-85 205.7-189.8C442.8 116.6 350.7 31.6 237.1 31.6zM217.9 145.3c0-10.2 8.3-18.5 18.5-18.5s18.5 8.3 18.5 18.5v101c0 10.2-8.3 18.5-18.5 18.5s-18.5-8.3-18.5-18.5V145.3zM236.4 316c-11.2 0-20.4-9.1-20.4-20.4 0-11.2 9.1-20.4 20.4-20.4 11.2 0 20.4 9.1 20.4 20.4C256.7 306.8 247.6 316 236.4 316z" fill="#cc1436"/></svg>